<?xml version="1.0" encoding="utf-8"?>
<!-- Generator: Adobe Illustrator 16.0.4, SVG Export Plug-In . SVG Version: 6.00 Build 0)  -->
<!DOCTYPE svg PUBLIC "-//W3C//DTD SVG 1.1//EN" "http://www.w3.org/Graphics/SVG/1.1/DTD/svg11.dtd">
<svg version="1.1" id="Layer_1" xmlns="http://www.w3.org/2000/svg" xmlns:xlink="http://www.w3.org/1999/xlink" x="0px" y="0px"
	 width="100%" height="100%" viewBox="0 0 48 48" xml:space="preserve">
<g>
	<path fill="#FFFFFF" d="M24,0C10.768,0,0,10.767,0,24c0,6.67,2.809,13.094,7.708,17.625c0.396,0.364,1.014,0.34,1.381-0.057
		c0.366-0.396,0.342-1.014-0.055-1.379C4.535,36.027,1.953,30.127,1.953,24C1.953,11.844,11.844,1.953,24,1.953
		S46.047,11.844,46.047,24S36.156,46.047,24,46.047c-0.54,0-0.978,0.438-0.978,0.977S23.46,48,24,48c13.232,0,24-10.766,24-24
		C48,10.767,37.232,0,24,0z"/>
	<path fill="#FFFFFF" d="M13.705,14.682h20.59c0.538,0,0.977-0.438,0.977-0.977s-0.438-0.977-0.977-0.977h-20.59
		c-0.539,0-0.976,0.438-0.976,0.977C12.729,14.245,13.166,14.682,13.705,14.682z"/>
	<path fill="#FFFFFF" d="M13.705,24.977h20.59c0.538,0,0.977-0.437,0.977-0.977c0-0.539-0.438-0.978-0.977-0.978h-20.59
		c-0.539,0-0.976,0.438-0.976,0.978S13.166,24.977,13.705,24.977z"/>
	<path fill="#FFFFFF" d="M35.271,34.295c0-0.54-0.438-0.979-0.977-0.979h-20.59c-0.539,0-0.976,0.438-0.976,0.979
		s0.437,0.977,0.976,0.977h20.59C34.833,35.271,35.271,34.835,35.271,34.295z"/>
</g>
</svg>
